<svg width="18" height="21" viewBox="0 0 18 21" fill="none" xmlns="http://www.w3.org/2000/svg">
<path d="M12.468 12.375C15.3586 12.375 17.7415 14.7578 17.7415 17.6484V18.625C17.7415 19.6797 16.8821 20.5 15.8665 20.5H2.11646C1.06177 20.5 0.241455 19.6797 0.241455 18.625V17.6484C0.241455 14.7578 2.58521 12.375 5.47583 12.375C6.60864 12.375 7.11646 13 8.99146 13C10.8274 13 11.3352 12.375 12.468 12.375ZM15.8665 18.625V17.6484C15.8665 15.7734 14.343 14.25 12.468 14.25C11.8821 14.25 10.9836 14.875 8.99146 14.875C6.96021 14.875 6.06177 14.25 5.47583 14.25C3.60083 14.25 2.11646 15.7734 2.11646 17.6484V18.625H15.8665ZM8.99146 11.75C5.86646 11.75 3.36646 9.25 3.36646 6.125C3.36646 3.03906 5.86646 0.5 8.99146 0.5C12.0774 0.5 14.6165 3.03906 14.6165 6.125C14.6165 9.25 12.0774 11.75 8.99146 11.75ZM8.99146 2.375C6.92114 2.375 5.24146 4.09375 5.24146 6.125C5.24146 8.19531 6.92114 9.875 8.99146 9.875C11.0227 9.875 12.7415 8.19531 12.7415 6.125C12.7415 4.09375 11.0227 2.375 8.99146 2.375Z" fill="#53565A"/>
</svg>
