<svg width="23" height="19" viewBox="0 0 23 19" fill="none" xmlns="http://www.w3.org/2000/svg">
<path d="M22.2727 7C22.5071 7 22.7415 7.23438 22.7415 7.46875V8.40625C22.7415 8.67969 22.5071 8.875 22.2727 8.875H21.5305L20.4368 16.6484C20.3196 17.5859 19.5383 18.25 18.6008 18.25H4.34302C3.40552 18.25 2.62427 17.5859 2.50708 16.6484L1.41333 8.875H0.710205C0.436768 8.875 0.241455 8.67969 0.241455 8.40625V7.46875C0.241455 7.23438 0.436768 7 0.710205 7H3.52271L8.56177 1.10156C8.91333 0.710938 9.49927 0.671875 9.88989 0.984375C10.2805 1.33594 10.3196 1.92188 10.0071 2.3125L5.98364 7H16.9602L12.9368 2.3125C12.6243 1.92188 12.6633 1.33594 13.054 0.984375C13.4446 0.671875 14.0305 0.710938 14.3821 1.10156L19.4211 7H22.2727ZM18.6008 16.375L19.6165 8.875H3.32739L4.34302 16.375H18.6008ZM12.429 11.0625V14.1875C12.429 14.7344 11.9993 15.125 11.4915 15.125C10.9446 15.125 10.554 14.7344 10.554 14.1875V11.0625C10.554 10.5547 10.9446 10.125 11.4915 10.125C11.9993 10.125 12.429 10.5547 12.429 11.0625ZM16.804 11.0625V14.1875C16.804 14.7344 16.3743 15.125 15.8665 15.125C15.3196 15.125 14.929 14.7344 14.929 14.1875V11.0625C14.929 10.5547 15.3196 10.125 15.8665 10.125C16.3743 10.125 16.804 10.5547 16.804 11.0625ZM8.05396 11.0625V14.1875C8.05396 14.7344 7.62427 15.125 7.11646 15.125C6.56958 15.125 6.17896 14.7344 6.17896 14.1875V11.0625C6.17896 10.5547 6.56958 10.125 7.11646 10.125C7.62427 10.125 8.05396 10.5547 8.05396 11.0625Z" fill="#53565A"/>
</svg>
